<mxfile host="app.diagrams.net" modified="2022-10-13T17:42:18.516Z" agent="5.0 (Macintosh; Intel Mac OS X 10_15_7) AppleWebKit/537.36 (KHTML, like Gecko) Chrome/106.0.0.0 Safari/537.36" etag="qJcF8yt6HvtyFCQupAoy" version="20.3.7" type="github">
  <diagram id="E1icBDbAE8lrkz-1fexr" name="第 1 页">
    <mxGraphModel dx="850" dy="668" grid="1" gridSize="10" guides="1" tooltips="1" connect="1" arrows="1" fold="1" page="1" pageScale="1" pageWidth="1169" pageHeight="1654" math="0" shadow="0">
      <root>
        <mxCell id="0" />
        <mxCell id="1" parent="0" />
        <mxCell id="FgEt26JZBdAFu263--hS-1" value="" style="rounded=0;whiteSpace=wrap;html=1;strokeWidth=2;" vertex="1" parent="1">
          <mxGeometry x="195" y="200" width="130" height="360" as="geometry" />
        </mxCell>
        <mxCell id="FgEt26JZBdAFu263--hS-10" value="...." style="rounded=0;whiteSpace=wrap;html=1;strokeWidth=2;fontSize=22;" vertex="1" parent="1">
          <mxGeometry x="195" y="520" width="130" height="40" as="geometry" />
        </mxCell>
        <mxCell id="FgEt26JZBdAFu263--hS-11" value="x = 5" style="rounded=0;whiteSpace=wrap;html=1;strokeWidth=2;fontSize=22;fillColor=#6a00ff;fontColor=#ffffff;strokeColor=#3700CC;" vertex="1" parent="1">
          <mxGeometry x="195" y="440" width="130" height="40" as="geometry" />
        </mxCell>
        <mxCell id="FgEt26JZBdAFu263--hS-14" value="result = 0" style="rounded=0;whiteSpace=wrap;html=1;strokeWidth=2;fontSize=22;fillColor=#6a00ff;fontColor=#ffffff;strokeColor=#3700CC;" vertex="1" parent="1">
          <mxGeometry x="195" y="400" width="130" height="40" as="geometry" />
        </mxCell>
        <mxCell id="FgEt26JZBdAFu263--hS-15" value="x" style="rounded=0;whiteSpace=wrap;html=1;strokeWidth=2;fontSize=22;fillColor=#6a00ff;fontColor=#ffffff;strokeColor=#3700CC;" vertex="1" parent="1">
          <mxGeometry x="195" y="480" width="130" height="40" as="geometry" />
        </mxCell>
        <mxCell id="FgEt26JZBdAFu263--hS-16" value="result = square" style="rounded=0;whiteSpace=wrap;html=1;strokeWidth=2;fontSize=22;fillColor=#6a00ff;fontColor=#ffffff;strokeColor=#3700CC;" vertex="1" parent="1">
          <mxGeometry x="195" y="330" width="130" height="70" as="geometry" />
        </mxCell>
        <mxCell id="FgEt26JZBdAFu263--hS-17" value="" style="endArrow=classic;html=1;rounded=0;strokeWidth=2;fontSize=22;entryX=0.514;entryY=1.075;entryDx=0;entryDy=0;entryPerimeter=0;" edge="1" parent="1" target="FgEt26JZBdAFu263--hS-19">
          <mxGeometry width="50" height="50" relative="1" as="geometry">
            <mxPoint x="145" y="530" as="sourcePoint" />
            <mxPoint x="145" y="240" as="targetPoint" />
          </mxGeometry>
        </mxCell>
        <mxCell id="FgEt26JZBdAFu263--hS-18" value="Low" style="text;html=1;align=center;verticalAlign=middle;resizable=0;points=[];autosize=1;strokeColor=none;fillColor=none;fontSize=22;" vertex="1" parent="1">
          <mxGeometry x="115" y="530" width="60" height="40" as="geometry" />
        </mxCell>
        <mxCell id="FgEt26JZBdAFu263--hS-19" value="Hight" style="text;html=1;align=center;verticalAlign=middle;resizable=0;points=[];autosize=1;strokeColor=none;fillColor=none;fontSize=22;" vertex="1" parent="1">
          <mxGeometry x="110" y="180" width="70" height="40" as="geometry" />
        </mxCell>
        <mxCell id="FgEt26JZBdAFu263--hS-20" value="" style="endArrow=classic;html=1;rounded=0;strokeWidth=2;fontSize=22;" edge="1" parent="1">
          <mxGeometry width="50" height="50" relative="1" as="geometry">
            <mxPoint x="400" y="330" as="sourcePoint" />
            <mxPoint x="330" y="330" as="targetPoint" />
          </mxGeometry>
        </mxCell>
        <mxCell id="FgEt26JZBdAFu263--hS-21" value="&lt;b&gt;%rbp&lt;/b&gt;" style="text;html=1;align=center;verticalAlign=middle;resizable=0;points=[];autosize=1;strokeColor=none;fillColor=none;fontSize=22;" vertex="1" parent="1">
          <mxGeometry x="392" y="498" width="80" height="40" as="geometry" />
        </mxCell>
        <mxCell id="FgEt26JZBdAFu263--hS-22" value="" style="endArrow=classic;html=1;rounded=0;strokeWidth=2;fontSize=22;" edge="1" parent="1">
          <mxGeometry width="50" height="50" relative="1" as="geometry">
            <mxPoint x="403" y="520" as="sourcePoint" />
            <mxPoint x="333" y="520" as="targetPoint" />
          </mxGeometry>
        </mxCell>
        <mxCell id="FgEt26JZBdAFu263--hS-23" value="&lt;b&gt;%rsp&lt;/b&gt;" style="text;html=1;align=center;verticalAlign=middle;resizable=0;points=[];autosize=1;strokeColor=none;fillColor=none;fontSize=22;" vertex="1" parent="1">
          <mxGeometry x="391" y="309" width="80" height="40" as="geometry" />
        </mxCell>
        <mxCell id="FgEt26JZBdAFu263--hS-24" value="" style="rounded=0;whiteSpace=wrap;html=1;strokeWidth=2;" vertex="1" parent="1">
          <mxGeometry x="550" y="200" width="130" height="360" as="geometry" />
        </mxCell>
        <mxCell id="FgEt26JZBdAFu263--hS-25" value="...." style="rounded=0;whiteSpace=wrap;html=1;strokeWidth=2;fontSize=22;" vertex="1" parent="1">
          <mxGeometry x="550" y="520" width="130" height="40" as="geometry" />
        </mxCell>
        <mxCell id="FgEt26JZBdAFu263--hS-26" value="x = 5" style="rounded=0;whiteSpace=wrap;html=1;strokeWidth=2;fontSize=22;fillColor=#6a00ff;fontColor=#ffffff;strokeColor=#3700CC;" vertex="1" parent="1">
          <mxGeometry x="550" y="450" width="130" height="40" as="geometry" />
        </mxCell>
        <mxCell id="FgEt26JZBdAFu263--hS-27" value="result = 0" style="rounded=0;whiteSpace=wrap;html=1;strokeWidth=2;fontSize=22;fillColor=#6a00ff;fontColor=#ffffff;strokeColor=#3700CC;" vertex="1" parent="1">
          <mxGeometry x="550" y="410" width="130" height="40" as="geometry" />
        </mxCell>
        <mxCell id="FgEt26JZBdAFu263--hS-28" value="x" style="rounded=0;whiteSpace=wrap;html=1;strokeWidth=2;fontSize=22;fillColor=#6a00ff;fontColor=#ffffff;strokeColor=#3700CC;" vertex="1" parent="1">
          <mxGeometry x="550" y="490" width="130" height="40" as="geometry" />
        </mxCell>
        <mxCell id="FgEt26JZBdAFu263--hS-29" value="result = square" style="rounded=0;whiteSpace=wrap;html=1;strokeWidth=2;fontSize=22;fillColor=#6a00ff;fontColor=#ffffff;strokeColor=#3700CC;" vertex="1" parent="1">
          <mxGeometry x="550" y="342" width="130" height="70" as="geometry" />
        </mxCell>
        <mxCell id="FgEt26JZBdAFu263--hS-33" value="" style="endArrow=classic;html=1;rounded=0;strokeWidth=2;fontSize=22;" edge="1" parent="1">
          <mxGeometry width="50" height="50" relative="1" as="geometry">
            <mxPoint x="760" y="309" as="sourcePoint" />
            <mxPoint x="690" y="309" as="targetPoint" />
          </mxGeometry>
        </mxCell>
        <mxCell id="FgEt26JZBdAFu263--hS-34" value="&lt;b&gt;%rbp&lt;/b&gt;" style="text;html=1;align=center;verticalAlign=middle;resizable=0;points=[];autosize=1;strokeColor=none;fillColor=none;fontSize=22;" vertex="1" parent="1">
          <mxGeometry x="750" y="287" width="80" height="40" as="geometry" />
        </mxCell>
        <mxCell id="FgEt26JZBdAFu263--hS-35" value="" style="endArrow=classic;html=1;rounded=0;strokeWidth=2;fontSize=22;" edge="1" parent="1">
          <mxGeometry width="50" height="50" relative="1" as="geometry">
            <mxPoint x="759" y="236" as="sourcePoint" />
            <mxPoint x="689" y="236" as="targetPoint" />
          </mxGeometry>
        </mxCell>
        <mxCell id="FgEt26JZBdAFu263--hS-36" value="&lt;b&gt;%rsp&lt;/b&gt;" style="text;html=1;align=center;verticalAlign=middle;resizable=0;points=[];autosize=1;strokeColor=none;fillColor=none;fontSize=22;" vertex="1" parent="1">
          <mxGeometry x="759" y="215" width="80" height="40" as="geometry" />
        </mxCell>
        <mxCell id="FgEt26JZBdAFu263--hS-37" value="return eax" style="rounded=0;whiteSpace=wrap;html=1;strokeWidth=2;fontSize=22;fillColor=#e51400;fontColor=#ffffff;strokeColor=#B20000;" vertex="1" parent="1">
          <mxGeometry x="550" y="240" width="130" height="70" as="geometry" />
        </mxCell>
        <mxCell id="FgEt26JZBdAFu263--hS-38" value="" style="shape=curlyBracket;whiteSpace=wrap;html=1;rounded=1;strokeWidth=2;fontSize=22;" vertex="1" parent="1">
          <mxGeometry x="520" y="240" width="20" height="70" as="geometry" />
        </mxCell>
        <mxCell id="FgEt26JZBdAFu263--hS-39" value="&lt;b&gt;Square&lt;/b&gt;" style="text;html=1;align=center;verticalAlign=middle;resizable=0;points=[];autosize=1;strokeColor=none;fillColor=none;fontSize=22;" vertex="1" parent="1">
          <mxGeometry x="420" y="255" width="100" height="40" as="geometry" />
        </mxCell>
        <mxCell id="FgEt26JZBdAFu263--hS-40" value="" style="rounded=0;whiteSpace=wrap;html=1;strokeWidth=2;" vertex="1" parent="1">
          <mxGeometry x="880" y="200" width="130" height="360" as="geometry" />
        </mxCell>
        <mxCell id="FgEt26JZBdAFu263--hS-41" value="...." style="rounded=0;whiteSpace=wrap;html=1;strokeWidth=2;fontSize=22;" vertex="1" parent="1">
          <mxGeometry x="880" y="520" width="130" height="40" as="geometry" />
        </mxCell>
        <mxCell id="FgEt26JZBdAFu263--hS-42" value="x = 5" style="rounded=0;whiteSpace=wrap;html=1;strokeWidth=2;fontSize=22;strokeColor=#3700CC;fillColor=#6a00ff;fontColor=#ffffff;" vertex="1" parent="1">
          <mxGeometry x="880" y="440" width="130" height="40" as="geometry" />
        </mxCell>
        <mxCell id="FgEt26JZBdAFu263--hS-43" value="result = 0" style="rounded=0;whiteSpace=wrap;html=1;strokeWidth=2;fontSize=22;strokeColor=#3700CC;fillColor=#6a00ff;fontColor=#ffffff;" vertex="1" parent="1">
          <mxGeometry x="880" y="397" width="130" height="40" as="geometry" />
        </mxCell>
        <mxCell id="FgEt26JZBdAFu263--hS-44" value="x" style="rounded=0;whiteSpace=wrap;html=1;strokeWidth=2;fontSize=22;strokeColor=#3700CC;fillColor=#6a00ff;fontColor=#ffffff;" vertex="1" parent="1">
          <mxGeometry x="880" y="480" width="130" height="40" as="geometry" />
        </mxCell>
        <mxCell id="FgEt26JZBdAFu263--hS-45" value="result = square" style="rounded=0;whiteSpace=wrap;html=1;strokeWidth=2;fontSize=22;strokeColor=#3700CC;fillColor=#6a00ff;fontColor=#ffffff;" vertex="1" parent="1">
          <mxGeometry x="880" y="327" width="130" height="70" as="geometry" />
        </mxCell>
        <mxCell id="FgEt26JZBdAFu263--hS-46" value="" style="endArrow=classic;html=1;rounded=0;strokeWidth=2;fontSize=22;" edge="1" parent="1">
          <mxGeometry width="50" height="50" relative="1" as="geometry">
            <mxPoint x="1095" y="257" as="sourcePoint" />
            <mxPoint x="1025" y="257" as="targetPoint" />
          </mxGeometry>
        </mxCell>
        <mxCell id="FgEt26JZBdAFu263--hS-47" value="&lt;b&gt;%rbp&lt;/b&gt;" style="text;html=1;align=center;verticalAlign=middle;resizable=0;points=[];autosize=1;strokeColor=none;fillColor=none;fontSize=22;" vertex="1" parent="1">
          <mxGeometry x="1100" y="309" width="80" height="40" as="geometry" />
        </mxCell>
        <mxCell id="FgEt26JZBdAFu263--hS-48" value="" style="endArrow=classic;html=1;rounded=0;strokeWidth=2;fontSize=22;" edge="1" parent="1">
          <mxGeometry width="50" height="50" relative="1" as="geometry">
            <mxPoint x="1095" y="328.5" as="sourcePoint" />
            <mxPoint x="1025" y="328.5" as="targetPoint" />
          </mxGeometry>
        </mxCell>
        <mxCell id="FgEt26JZBdAFu263--hS-49" value="&lt;b&gt;%rsp&lt;/b&gt;" style="text;html=1;align=center;verticalAlign=middle;resizable=0;points=[];autosize=1;strokeColor=none;fillColor=none;fontSize=22;" vertex="1" parent="1">
          <mxGeometry x="1100" y="237" width="80" height="40" as="geometry" />
        </mxCell>
        <mxCell id="FgEt26JZBdAFu263--hS-52" value="printf(x)" style="rounded=0;whiteSpace=wrap;html=1;strokeWidth=2;fontSize=22;fillColor=#60a917;fontColor=#ffffff;strokeColor=#2D7600;" vertex="1" parent="1">
          <mxGeometry x="880" y="257" width="130" height="70" as="geometry" />
        </mxCell>
        <mxCell id="FgEt26JZBdAFu263--hS-58" value="&lt;b&gt;Recycle&lt;/b&gt;" style="text;html=1;align=center;verticalAlign=middle;resizable=0;points=[];autosize=1;strokeColor=none;fillColor=none;fontSize=22;" vertex="1" parent="1">
          <mxGeometry x="890" y="150" width="110" height="40" as="geometry" />
        </mxCell>
        <mxCell id="FgEt26JZBdAFu263--hS-66" style="edgeStyle=orthogonalEdgeStyle;rounded=0;orthogonalLoop=1;jettySize=auto;html=1;entryX=1;entryY=0.75;entryDx=0;entryDy=0;strokeWidth=2;fontSize=22;" edge="1" parent="1" source="FgEt26JZBdAFu263--hS-60" target="FgEt26JZBdAFu263--hS-25">
          <mxGeometry relative="1" as="geometry">
            <Array as="points">
              <mxPoint x="700" y="325" />
              <mxPoint x="700" y="550" />
            </Array>
          </mxGeometry>
        </mxCell>
        <mxCell id="FgEt26JZBdAFu263--hS-60" value="%rbp" style="rounded=0;whiteSpace=wrap;html=1;strokeWidth=2;fontSize=22;fillColor=#008a00;fontColor=#ffffff;strokeColor=#005700;" vertex="1" parent="1">
          <mxGeometry x="550" y="310" width="130" height="30" as="geometry" />
        </mxCell>
        <mxCell id="FgEt26JZBdAFu263--hS-67" value="&lt;b&gt;Stack&lt;/b&gt;" style="text;html=1;align=center;verticalAlign=middle;resizable=0;points=[];autosize=1;strokeColor=none;fillColor=none;fontSize=22;" vertex="1" parent="1">
          <mxGeometry x="220" y="140" width="80" height="40" as="geometry" />
        </mxCell>
      </root>
    </mxGraphModel>
  </diagram>
</mxfile>
